<svg xmlns="http://www.w3.org/2000/svg" version="1.1" xmlns:xlink="http://www.w3.org/1999/xlink" xmlns:svgjs="http://svgjs.dev/svgjs" width="128" height="128" viewBox="0 0 128 128"><g transform="matrix(0.8046875,0,0,0.8046875,12.616487315579562,12.760752631578946)"><svg viewBox="0 0 95 95" data-background-color="#20234d" preserveAspectRatio="xMidYMid meet" height="128" width="128" xmlns="http://www.w3.org/2000/svg" xmlns:xlink="http://www.w3.org/1999/xlink"><g id="tight-bounds" transform="matrix(1,0,0,1,-0.10743975708794551,-0.24049999999999727)"><svg viewBox="0 0 95.21487951417588 95.481" height="95.481" width="95.21487951417588"><g><svg viewBox="0 0 95.21487951417588 95.481" height="95.481" width="95.21487951417588"><g><svg viewBox="0 0 95.21487951417588 95.481" height="95.481" width="95.21487951417588"><g id="textblocktransform"><svg viewBox="0 0 95.21487951417588 95.481" height="95.481" width="95.21487951417588" id="textblock"><g><svg viewBox="0 0 95.21487951417588 95.481" height="95.481" width="95.21487951417588"><g><svg viewBox="0 0 95.21487951417588 95.481" height="95.481" width="95.21487951417588"><g><svg xmlns="http://www.w3.org/2000/svg" xmlns:xlink="http://www.w3.org/1999/xlink" version="1.1" x="0" y="0" viewBox="1.3569266054381648 1.3159999999999998 29.286146789123674 29.368000000000002" enable-background="new 0 0 32 32" xml:space="preserve" height="95.481" width="95.21487951417588" class="icon-icon-0" data-fill-palette-color="accent" id="icon-0"><path d="M30.171 7.314c-0.025-0.274-0.215-0.498-0.421-0.498s-0.375-0.169-0.375-0.375-0.222-0.337-0.493-0.292L27.41 6.399C27.114 4.607 26.67 3.486 26 2.816c-2-2-18-2-20 0C5.331 3.486 4.886 4.607 4.589 6.399L3.118 6.15C2.847 6.104 2.625 6.235 2.625 6.441S2.456 6.816 2.25 6.816 1.854 7.041 1.829 7.314l-0.47 5.066c-0.025 0.274 0.179 0.498 0.454 0.498h1.062c0.275 0 0.521-0.224 0.546-0.498l0.393-4.232c0.025-0.274 0.268-0.46 0.54-0.415l0.054 0.009C4.007 11.396 4 29.684 4 29.684c0 0.553 0.14 1 0.313 1h2.562c0.173 0 0.313-0.447 0.313-1v-1.893c4.643 0.698 12.982 0.698 17.625 0v1.889c0 0.553 0.141 1 0.312 1h2.562c0.172 0 0.312-0.447 0.312-1 0 0-0.007-18.283-0.407-21.937l0.054-0.009c0.271-0.046 0.514 0.141 0.539 0.415l0.394 4.232c0.025 0.274 0.271 0.498 0.546 0.498h1.062c0.275 0 0.479-0.224 0.454-0.498L30.171 7.314zM7.125 23.371c-1.001 0-1.812-0.812-1.812-1.812s0.812-1.812 1.812-1.812 1.812 0.812 1.812 1.812S8.126 23.371 7.125 23.371zM5.042 15.977C5.143 8.542 5.491 4.739 6.707 3.523 7.194 3.037 10.484 2.316 16 2.316c5.516 0 8.806 0.72 9.293 1.207 1.217 1.216 1.564 5.02 1.665 12.455-1.175 0.473-4.904 1.025-10.958 1.025C9.951 17.004 6.222 16.452 5.042 15.977zM23.062 21.559c0-1.001 0.812-1.812 1.812-1.812s1.812 0.812 1.812 1.812-0.812 1.812-1.812 1.812S23.062 22.56 23.062 21.559z" fill="#bf1fd0" data-fill-palette-color="accent"></path></svg></g></svg></g></svg></g></svg></g></svg></g></svg></g><defs></defs></svg><rect width="95.21487951417588" height="95.481" fill="none" stroke="none" visibility="hidden"></rect></g></svg></g></svg>