<svg xmlns="http://www.w3.org/2000/svg" version="1.1" xmlns:xlink="http://www.w3.org/1999/xlink" xmlns:svgjs="http://svgjs.dev/svgjs" width="2000" height="323" viewBox="0 0 2000 323"><g transform="matrix(1,0,0,1,-1.2121212121212466,-1.2569941069676815)"><svg viewBox="0 0 396 64" data-background-color="#20234d" preserveAspectRatio="xMidYMid meet" height="323" width="2000" xmlns="http://www.w3.org/2000/svg" xmlns:xlink="http://www.w3.org/1999/xlink"><g id="tight-bounds" transform="matrix(1,0,0,1,0.2400000000000091,0.24906384782022428)"><svg viewBox="0 0 395.52 63.50187230435954" height="63.50187230435954" width="395.52"><g><svg viewBox="0 0 489.7299505411968 78.62755052307693" height="63.50187230435954" width="395.52"><g transform="matrix(1,0,0,1,94.20995054119683,5.846698338461543)"><svg viewBox="0 0 395.52 66.93415384615385" height="66.93415384615385" width="395.52"><g id="textblocktransform"><svg viewBox="0 0 395.52 66.93415384615385" height="66.93415384615385" width="395.52" id="textblock"><g><svg viewBox="0 0 395.52 66.93415384615385" height="66.93415384615385" width="395.52"><g transform="matrix(1,0,0,1,0,0)"><svg width="395.52" viewBox="2.86 -35.82 264.99 44.85" height="66.93415384615385" data-palette-color="#e99e15"><path d="M23.36-19.02L23.36-25.93 15.36-25.93 15.36-32.4 27.88-32.4 34.38-25.93 34.38-19.34 31.13-16.09 34.38-12.84 34.38-6.47 27.88 0 15.36 0 15.36-6.47 23.36-6.47 23.36-13.38 15.36-13.38 15.36-19.02 23.36-19.02ZM2.86 0L2.86-32.4 13.65-32.4 13.65 0 2.86 0ZM56.13-25.93L66.92-25.93 66.92 0 56.13 0 56.13-25.93ZM49.61-25.93L49.61-6.47 54.42-6.47 54.42-3.25 51.29 0 45.31 0 38.82-6.47 38.82-25.93 49.61-25.93ZM71.8-20.12L77.63-25.93 81.95-25.93 81.95-16.77 94.26-16.77 99.87-11.11 99.87-6.05 93.84 0 89.08 0 89.08-9.79 77.41-9.79 71.8-15.19 71.8-20.12ZM82.59-7.42L82.59-4.76 87.37-4.76 87.37 0 76.26-0.02 71.77-5.35 71.77-7.42 82.59-7.42ZM89.08-19.14L89.08-21.17 83.66-21.17 83.66-25.93 95.14-25.93 98.99-22.07 98.99-19.14 89.08-19.14ZM124.92-19.02L124.92-25.93 116.91-25.93 116.91-32.4 129.44-32.4 135.93-25.93 135.93-19.34 132.68-16.09 135.93-12.84 135.93-6.47 129.44 0 116.91 0 116.91-6.47 124.92-6.47 124.92-13.38 116.91-13.38 116.91-19.02 124.92-19.02ZM104.41 0L104.41-32.4 115.2-32.4 115.2 0 104.41 0ZM157.68-25.93L168.47-25.93 168.47 0 157.68 0 157.68-25.93ZM151.16-25.93L151.16-6.47 155.97-6.47 155.97-3.25 152.85 0 146.87 0 140.37-6.47 140.37-25.93 151.16-25.93ZM191.03-35.82L201.82-35.82 201.82 0 191.03 0 191.03-35.82ZM184.12-19.46L184.12-6.05 189.32-6.05 189.32-2.56 186.76 0 179.16 0 173.33-5.83 173.33-20.09 179.16-25.93 189.32-25.93 189.32-19.46 184.12-19.46ZM224.37-35.82L235.17-35.82 235.17 0 224.37 0 224.37-35.82ZM217.47-19.46L217.47-6.05 222.67-6.05 222.67-2.56 220.1 0 212.51 0 206.67-5.83 206.67-20.09 212.51-25.93 222.67-25.93 222.67-19.46 217.47-19.46ZM267.85-25.93L254.69 9.03 244.34 9.03 257.48-25.93 267.85-25.93ZM246.93-2.17L237.36-25.93 248.13-25.93 251.76-15.38 246.93-2.17Z" opacity="1" transform="matrix(1,0,0,1,0,0)" fill="#e99e15" class="wordmark-text-0" data-fill-palette-color="primary" id="text-0"></path></svg></g></svg></g></svg></g></svg></g><g><svg viewBox="0 0 78.40840323781221 78.62755052307693" height="78.62755052307693" width="78.40840323781221"><g><svg xmlns="http://www.w3.org/2000/svg" xmlns:xlink="http://www.w3.org/1999/xlink" version="1.1" x="0" y="0" viewBox="1.3569266054381648 1.3159999999999998 29.286146789123674 29.368000000000002" enable-background="new 0 0 32 32" xml:space="preserve" height="78.62755052307693" width="78.40840323781221" class="icon-icon-0" data-fill-palette-color="accent" id="icon-0"><path d="M30.171 7.314c-0.025-0.274-0.215-0.498-0.421-0.498s-0.375-0.169-0.375-0.375-0.222-0.337-0.493-0.292L27.41 6.399C27.114 4.607 26.67 3.486 26 2.816c-2-2-18-2-20 0C5.331 3.486 4.886 4.607 4.589 6.399L3.118 6.15C2.847 6.104 2.625 6.235 2.625 6.441S2.456 6.816 2.25 6.816 1.854 7.041 1.829 7.314l-0.47 5.066c-0.025 0.274 0.179 0.498 0.454 0.498h1.062c0.275 0 0.521-0.224 0.546-0.498l0.393-4.232c0.025-0.274 0.268-0.46 0.54-0.415l0.054 0.009C4.007 11.396 4 29.684 4 29.684c0 0.553 0.14 1 0.313 1h2.562c0.173 0 0.313-0.447 0.313-1v-1.893c4.643 0.698 12.982 0.698 17.625 0v1.889c0 0.553 0.141 1 0.312 1h2.562c0.172 0 0.312-0.447 0.312-1 0 0-0.007-18.283-0.407-21.937l0.054-0.009c0.271-0.046 0.514 0.141 0.539 0.415l0.394 4.232c0.025 0.274 0.271 0.498 0.546 0.498h1.062c0.275 0 0.479-0.224 0.454-0.498L30.171 7.314zM7.125 23.371c-1.001 0-1.812-0.812-1.812-1.812s0.812-1.812 1.812-1.812 1.812 0.812 1.812 1.812S8.126 23.371 7.125 23.371zM5.042 15.977C5.143 8.542 5.491 4.739 6.707 3.523 7.194 3.037 10.484 2.316 16 2.316c5.516 0 8.806 0.72 9.293 1.207 1.217 1.216 1.564 5.02 1.665 12.455-1.175 0.473-4.904 1.025-10.958 1.025C9.951 17.004 6.222 16.452 5.042 15.977zM23.062 21.559c0-1.001 0.812-1.812 1.812-1.812s1.812 0.812 1.812 1.812-0.812 1.812-1.812 1.812S23.062 22.56 23.062 21.559z" fill="#bf1fd0" data-fill-palette-color="accent"></path></svg></g></svg></g></svg></g><defs></defs></svg><rect width="395.52" height="63.50187230435954" fill="none" stroke="none" visibility="hidden"></rect></g></svg></g></svg>